<svg xmlns="http://www.w3.org/2000/svg" width="100" height="102" viewBox="0 0 100 102" fill="none">
  <g filter="url(#filter0_dddddd_166_293)">
    <path d="M57.3282 54.7453C56.8946 53.9984 56.2501 51.8852 56.2501 49.125C56.2501 47.4674 55.5916 45.8777 54.4195 44.7056C53.2474 43.5335 51.6577 42.875 50.0001 42.875C48.3425 42.875 46.7528 43.5335 45.5807 44.7056C44.4086 45.8777 43.7501 47.4674 43.7501 49.125C43.7501 51.8859 43.1048 53.9984 42.6712 54.7453C42.5604 54.9352 42.5017 55.1509 42.501 55.3707C42.5002 55.5905 42.5574 55.8066 42.6669 55.9973C42.7763 56.1879 42.934 56.3463 43.1242 56.4565C43.3144 56.5667 43.5303 56.6248 43.7501 56.625H46.9384C47.0825 57.3306 47.466 57.9647 48.0239 58.4201C48.5818 58.8756 49.2799 59.1243 50.0001 59.1243C50.7202 59.1243 51.4183 58.8756 51.9762 58.4201C52.5341 57.9647 52.9176 57.3306 53.0618 56.625H56.2501C56.4698 56.6247 56.6856 56.5665 56.8757 56.4562C57.0657 56.346 57.2234 56.1875 57.3327 55.9969C57.442 55.8063 57.4992 55.5903 57.4984 55.3705C57.4976 55.1508 57.4389 54.9351 57.3282 54.7453ZM50.0001 57.875C49.6124 57.8749 49.2344 57.7546 48.9179 57.5308C48.6014 57.3069 48.3621 56.9905 48.2329 56.625H51.7673C51.638 56.9905 51.3987 57.3069 51.0823 57.5308C50.7658 57.7546 50.3877 57.8749 50.0001 57.875Z" fill="#FDD06E"/>
  </g>
  <defs>
    <filter id="filter0_dddddd_166_293" x="-2.336" y="-1.336" width="104.672" height="104.672" filterUnits="userSpaceOnUse" color-interpolation-filters="sRGB">
      <feFlood flood-opacity="0" result="BackgroundImageFix"/>
      <feColorMatrix in="SourceAlpha" type="matrix" values="0 0 0 0 0 0 0 0 0 0 0 0 0 0 0 0 0 0 127 0" result="hardAlpha"/>
      <feOffset/>
      <feGaussianBlur stdDeviation="0.504"/>
      <feColorMatrix type="matrix" values="0 0 0 0 0.321569 0 0 0 0 0.262745 0 0 0 0 0.141176 0 0 0 1 0"/>
      <feBlend mode="normal" in2="BackgroundImageFix" result="effect1_dropShadow_166_293"/>
      <feColorMatrix in="SourceAlpha" type="matrix" values="0 0 0 0 0 0 0 0 0 0 0 0 0 0 0 0 0 0 127 0" result="hardAlpha"/>
      <feOffset/>
      <feGaussianBlur stdDeviation="1.008"/>
      <feColorMatrix type="matrix" values="0 0 0 0 0.321569 0 0 0 0 0.262745 0 0 0 0 0.141176 0 0 0 1 0"/>
      <feBlend mode="normal" in2="effect1_dropShadow_166_293" result="effect2_dropShadow_166_293"/>
      <feColorMatrix in="SourceAlpha" type="matrix" values="0 0 0 0 0 0 0 0 0 0 0 0 0 0 0 0 0 0 127 0" result="hardAlpha"/>
      <feOffset/>
      <feGaussianBlur stdDeviation="3.528"/>
      <feColorMatrix type="matrix" values="0 0 0 0 0.321569 0 0 0 0 0.262745 0 0 0 0 0.141176 0 0 0 1 0"/>
      <feBlend mode="normal" in2="effect2_dropShadow_166_293" result="effect3_dropShadow_166_293"/>
      <feColorMatrix in="SourceAlpha" type="matrix" values="0 0 0 0 0 0 0 0 0 0 0 0 0 0 0 0 0 0 127 0" result="hardAlpha"/>
      <feOffset/>
      <feGaussianBlur stdDeviation="7.056"/>
      <feColorMatrix type="matrix" values="0 0 0 0 0.321569 0 0 0 0 0.262745 0 0 0 0 0.141176 0 0 0 1 0"/>
      <feBlend mode="normal" in2="effect3_dropShadow_166_293" result="effect4_dropShadow_166_293"/>
      <feColorMatrix in="SourceAlpha" type="matrix" values="0 0 0 0 0 0 0 0 0 0 0 0 0 0 0 0 0 0 127 0" result="hardAlpha"/>
      <feOffset/>
      <feGaussianBlur stdDeviation="12.096"/>
      <feColorMatrix type="matrix" values="0 0 0 0 0.321569 0 0 0 0 0.262745 0 0 0 0 0.141176 0 0 0 1 0"/>
      <feBlend mode="normal" in2="effect4_dropShadow_166_293" result="effect5_dropShadow_166_293"/>
      <feColorMatrix in="SourceAlpha" type="matrix" values="0 0 0 0 0 0 0 0 0 0 0 0 0 0 0 0 0 0 127 0" result="hardAlpha"/>
      <feOffset/>
      <feGaussianBlur stdDeviation="21.168"/>
      <feColorMatrix type="matrix" values="0 0 0 0 0.321569 0 0 0 0 0.262745 0 0 0 0 0.141176 0 0 0 1 0"/>
      <feBlend mode="normal" in2="effect5_dropShadow_166_293" result="effect6_dropShadow_166_293"/>
      <feBlend mode="normal" in="SourceGraphic" in2="effect6_dropShadow_166_293" result="shape"/>
    </filter>
  </defs>
</svg>